<svg width="83" height="43" viewBox="0 0 83 43" fill="none" xmlns="http://www.w3.org/2000/svg">
<path d="M26.936 27.2211C26.936 27.5731 26.914 27.9398 26.87 28.3211H18.356C18.4147 29.0838 18.6567 29.6705 19.082 30.0811C19.522 30.4771 20.0573 30.6751 20.688 30.6751C21.6267 30.6751 22.2793 30.2791 22.646 29.4871H26.65C26.4447 30.2938 26.0707 31.0198 25.528 31.6651C25 32.3105 24.3327 32.8165 23.526 33.1831C22.7193 33.5498 21.8173 33.7331 20.82 33.7331C19.6173 33.7331 18.5467 33.4765 17.608 32.9631C16.6693 32.4498 15.936 31.7165 15.408 30.7631C14.88 29.8098 14.616 28.6951 14.616 27.4191C14.616 26.1431 14.8727 25.0285 15.386 24.0751C15.914 23.1218 16.6473 22.3885 17.586 21.8751C18.5247 21.3618 19.6027 21.1051 20.82 21.1051C22.008 21.1051 23.064 21.3545 23.988 21.8531C24.912 22.3518 25.6307 23.0631 26.144 23.9871C26.672 24.9111 26.936 25.9891 26.936 27.2211ZM23.086 26.2311C23.086 25.5858 22.866 25.0725 22.426 24.6911C21.986 24.3098 21.436 24.1191 20.776 24.1191C20.1453 24.1191 19.61 24.3025 19.17 24.6691C18.7447 25.0358 18.4807 25.5565 18.378 26.2311H23.086ZM33.9146 33.7331C32.844 33.7331 31.8906 33.5498 31.0546 33.1831C30.2186 32.8165 29.5586 32.3178 29.0746 31.6871C28.5906 31.0418 28.3193 30.3231 28.2606 29.5311H31.9786C32.0226 29.9565 32.2206 30.3011 32.5726 30.5651C32.9246 30.8291 33.3573 30.9611 33.8706 30.9611C34.34 30.9611 34.6993 30.8731 34.9486 30.6971C35.2126 30.5065 35.3446 30.2645 35.3446 29.9711C35.3446 29.6191 35.1613 29.3625 34.7946 29.2011C34.428 29.0251 33.834 28.8345 33.0126 28.6291C32.1326 28.4238 31.3993 28.2111 30.8126 27.9911C30.226 27.7565 29.72 27.3971 29.2946 26.9131C28.8693 26.4145 28.6566 25.7471 28.6566 24.9111C28.6566 24.2071 28.8473 23.5691 29.2286 22.9971C29.6246 22.4105 30.1966 21.9485 30.9446 21.6111C31.7073 21.2738 32.6093 21.1051 33.6506 21.1051C35.1906 21.1051 36.4006 21.4865 37.2806 22.2491C38.1753 23.0118 38.6886 24.0238 38.8206 25.2851H35.3446C35.286 24.8598 35.0953 24.5225 34.7726 24.2731C34.4646 24.0238 34.054 23.8991 33.5406 23.8991C33.1006 23.8991 32.7633 23.9871 32.5286 24.1631C32.294 24.3245 32.1766 24.5518 32.1766 24.8451C32.1766 25.1971 32.36 25.4611 32.7266 25.6371C33.108 25.8131 33.6946 25.9891 34.4866 26.1651C35.396 26.3998 36.1366 26.6345 36.7086 26.8691C37.2806 27.0891 37.7793 27.4558 38.2046 27.9691C38.6446 28.4678 38.872 29.1425 38.8866 29.9931C38.8866 30.7118 38.6813 31.3571 38.2706 31.9291C37.8746 32.4865 37.2953 32.9265 36.5326 33.2491C35.7846 33.5718 34.912 33.7331 33.9146 33.7331ZM40.4402 27.3971C40.4402 26.1358 40.6749 25.0285 41.1442 24.0751C41.6282 23.1218 42.2809 22.3885 43.1022 21.8751C43.9236 21.3618 44.8402 21.1051 45.8522 21.1051C46.7176 21.1051 47.4729 21.2811 48.1182 21.6331C48.7782 21.9851 49.2842 22.4471 49.6362 23.0191V21.2811H53.3982V33.5571H49.6362V31.8191C49.2696 32.3911 48.7562 32.8531 48.0962 33.2051C47.4509 33.5571 46.6956 33.7331 45.8302 33.7331C44.8329 33.7331 43.9236 33.4765 43.1022 32.9631C42.2809 32.4351 41.6282 31.6945 41.1442 30.7411C40.6749 29.7731 40.4402 28.6585 40.4402 27.3971ZM49.6362 27.4191C49.6362 26.4805 49.3722 25.7398 48.8442 25.1971C48.3309 24.6545 47.7002 24.3831 46.9522 24.3831C46.2042 24.3831 45.5662 24.6545 45.0382 25.1971C44.5249 25.7251 44.2682 26.4585 44.2682 27.3971C44.2682 28.3358 44.5249 29.0838 45.0382 29.6411C45.5662 30.1838 46.2042 30.4551 46.9522 30.4551C47.7002 30.4551 48.3309 30.1838 48.8442 29.6411C49.3722 29.0985 49.6362 28.3578 49.6362 27.4191ZM65.5799 24.2731V27.3971H55.8999V24.2731H65.5799ZM77.8356 33.5571L72.6436 26.7371V33.5571H68.8816V18.1131H72.6436V24.8891L77.7916 18.1131H82.2136L76.2296 25.6811L82.4336 33.5571H77.8356Z" fill="#E81E61"/>
<path d="M21.1176 10.986C19.9677 11.6793 19.0211 11.573 18.2502 10.7047C17.5509 9.91691 17.3495 8.75266 17.7325 7.7124C18.1066 6.6962 19.0064 6.04559 19.9554 6.10508C20.8796 6.16303 21.6928 6.87009 21.9824 7.91327C22.3242 9.14425 22.0079 10.1499 21.1176 10.986Z" fill="#222222"/>
<path d="M3.05176e-05 9.93754C0.00430489 9.41877 -0.00369263 8.89956 0.0152016 8.38131C0.0678501 6.93701 0.613592 5.67586 1.49203 4.53905C2.26135 3.54344 3.26163 2.84639 4.42316 2.3894C5.55938 1.94236 6.74286 1.79721 7.96769 1.97689C8.76117 2.09329 9.56531 2.13689 10.363 2.22723C11.1595 2.31743 11.953 2.43248 12.7494 2.52326C13.5473 2.61422 14.3474 2.68693 15.1462 2.771C15.6088 2.81969 16.0708 2.875 16.5911 2.95208C18.0612 3.14242 19.4727 3.31275 20.8856 3.47055C21.2805 3.51467 21.6797 3.52185 22.077 3.54597C23.3995 3.71688 24.6404 4.09573 25.7481 4.86564C27.4874 6.07454 28.5431 7.70642 28.9182 9.77027C28.9705 10.0582 28.9958 10.3548 28.9962 10.6475C29.0016 13.8793 28.9998 17.111 28.9995 20.3428C28.9995 20.9483 28.7115 21.2029 28.1062 21.2397C26.5466 21.3344 25.1159 19.9935 25.1397 18.3029C25.1424 18.1087 25.14 17.9144 25.14 17.7559C19.7894 19.5254 14.4414 21.2941 9.04786 23.0779C9.23403 23.4891 9.41118 23.8937 9.59925 24.2932C10.21 25.5909 10.8269 26.8857 11.4375 28.1835C12.0647 29.5166 12.6941 30.8488 13.3089 32.1875C13.6188 32.8623 13.1666 33.5345 12.4071 33.5409C11.4229 33.5493 10.4387 33.543 9.45448 33.543C6.67246 33.543 3.89043 33.5432 1.10841 33.5429C0.328398 33.5429 0.0130444 33.2365 0.0128918 32.4799C0.0119247 27.7166 0.0110302 22.9533 0.00990486 18.1176C0.00647926 17.4201 0.00326347 16.7951 0.00511551 16.1337C0.00677109 14.6934 0.00336266 13.2893 0.00478554 11.849C0.00642204 11.1877 0.00322723 10.5626 3.05176e-05 9.93754ZM19.1553 9.49527C19.5321 9.95633 20.0054 10.1287 20.5849 9.94244C21.0759 9.7846 21.4087 9.34144 21.436 8.83773C21.464 8.32055 21.1577 7.83018 20.6794 7.62627C20.1898 7.41753 19.6417 7.52732 19.2709 7.90844C18.8622 8.32855 18.8122 8.84443 19.1553 9.49527Z" fill="#E81E61"/>
<path d="M15.3335 15.9448C17.3273 15.3598 17.2174 12.4992 15.1845 12.069L7.28531 10.3974C6.04383 10.1347 4.87472 11.0796 4.87125 12.3486L4.86036 16.3409C4.85671 17.6778 6.14052 18.6418 7.42338 18.2655L15.3335 15.9448Z" fill="white"/>
<path d="M22.0722 3.51753C21.6796 3.52176 21.2804 3.51458 20.8855 3.47047C19.4726 3.31266 18.0611 3.14233 16.6237 2.95603C17.4217 2.06389 18.2382 1.18579 19.0714 0.32358C19.5525 -0.174181 20.1612 -0.0885021 20.4888 0.51744C20.921 1.31679 21.332 2.12733 21.7547 2.93175C21.8537 3.12025 21.963 3.30351 22.0722 3.51753Z" fill="#F9C13C"/>
<path d="M4.57581 27.1667C4.57581 26.5628 5.44766 26.4765 5.5661 27.0687L6.74418 32.9591C6.80606 33.2685 6.56941 33.5571 6.25389 33.5571H5.07581C4.79967 33.5571 4.57581 33.3333 4.57581 33.0571L4.57581 27.1667Z" fill="white"/>
</svg>
